<svg id="Layer_1" data-name="Layer 1" xmlns="http://www.w3.org/2000/svg" viewBox="0 0 100 100"><path d="M50,100a50,50,0,1,1,50-50A50.06,50.06,0,0,1,50,100ZM50,4.08A45.92,45.92,0,1,0,95.92,50,46,46,0,0,0,50,4.08Z" transform="translate(0 0)" style="fill:#00e0b5"/><path d="M40.23,99.74A2.09,2.09,0,0,1,39,99.33C24.94,88.68,16.38,64.13,19.5,43.44,23.12,19.46,40.55,0,50,0a2,2,0,0,1,0,4.08c-5.89,0-22.84,15.93-26.47,40-2.87,19,5.18,42.36,17.93,52a2,2,0,0,1-1.23,3.66Z" transform="translate(0 0)" style="fill:#00e0b5"/><path d="M21.94,58a16.31,16.31,0,0,1-11.63-4.42C3.08,46.75,2.7,34.3,4.51,29.26a2,2,0,1,1,3.83,1.38c-1.4,3.92-1,14.53,4.78,20,4.32,4.11,10.76,4.41,19.11.9,3.05-1.28,7.31-5.27,12.24-9.9C57.61,29.31,75.6,12.42,93.59,25.87a2,2,0,0,1-2.44,3.27C75.9,17.73,60,32.64,47.26,44.62c-5.22,4.9-9.72,9.13-13.45,10.69A30.75,30.75,0,0,1,21.94,58Z" transform="translate(0 0)" style="fill:#00e0b5"/><path d="M33.93,70.09c-8.26,0-15.71-1.32-21.59-3.91C4.38,62.66,0,56.92,0,50a2,2,0,0,1,4.08,0c0,6.67,5.39,10.45,9.91,12.44,23.59,10.42,62.21-2.55,82.12-20.7a2,2,0,0,1,2.75,3C80.06,61.9,54.49,70.09,33.93,70.09Z" transform="translate(0 0)" style="fill:#00e0b5"/><path d="M66.76,89.66c-11,0-20.6-4.81-31.77-10.39l-.44-.22c-5.45-2.72-10-3.38-13.41-2A9.78,9.78,0,0,0,16,82.42a2,2,0,0,1-3.87-1.27,13.71,13.71,0,0,1,7.36-7.8c4.6-1.93,10.28-1.24,16.86,2.05l.44.22C53.4,83.91,65.39,89.9,83.56,81.55a2,2,0,1,1,1.7,3.7A43.6,43.6,0,0,1,66.76,89.66Z" transform="translate(0 0)" style="fill:#00e0b5"/></svg>