<svg id="Layer_1" data-name="Layer 1" xmlns="http://www.w3.org/2000/svg" viewBox="0 0 47.19 100"><path d="M45.67,100h-37a1.52,1.52,0,0,1-1.52-1.52V35.11A11.69,11.69,0,0,1,18.83,23.44H35.52A11.69,11.69,0,0,1,47.19,35.11V98.48A1.52,1.52,0,0,1,45.67,100ZM10.2,97h34V35.11a8.64,8.64,0,0,0-8.63-8.63H18.83a8.64,8.64,0,0,0-8.63,8.63Z" style="fill:#00e0b5"/><path d="M38,26.48H16.4a3.58,3.58,0,1,1,0-7.16H38a3.58,3.58,0,1,1,0,7.16ZM16.4,22.36a.54.54,0,0,0,0,1.08H38a.54.54,0,1,0,0-1.08Z" style="fill:#00e0b5"/><path d="M42.05,22.36H12.3a1.52,1.52,0,0,1-1.52-1.52v-2.4A11.69,11.69,0,0,1,22.45,6.76H31.9A11.69,11.69,0,0,1,43.57,18.44v2.4A1.52,1.52,0,0,1,42.05,22.36Zm-28.23-3H40.54v-.88A8.66,8.66,0,0,0,31.9,9.8H22.45a8.65,8.65,0,0,0-8.63,8.64Z" style="fill:#00e0b5"/><path d="M16.59,18.3a1.52,1.52,0,0,1-1.46-1.94,7.64,7.64,0,0,1,7.32-5.54,1.52,1.52,0,0,1,0,3,4.6,4.6,0,0,0-4.4,3.33A1.52,1.52,0,0,1,16.59,18.3Z" style="fill:#00e0b5"/><path d="M30.88,9.8h-7.4A1.52,1.52,0,0,1,22,8.28V5.22a5.22,5.22,0,0,1,10.44,0V8.28A1.52,1.52,0,0,1,30.88,9.8ZM25,6.76h4.36V5.22a2.18,2.18,0,1,0-4.36,0Z" style="fill:#00e0b5"/><path d="M18.1,26.48H8.84a8.85,8.85,0,0,1,0-17.69h7.53a1.52,1.52,0,0,1,0,3H8.84a5.81,5.81,0,0,0,0,11.61H18.1a1.52,1.52,0,0,1,0,3Z" style="fill:#00e0b5"/><path d="M45.67,39.48h-37a1.52,1.52,0,0,1,0-3h37a1.52,1.52,0,0,1,0,3Z" style="fill:#00e0b5"/><path d="M45.67,84.9h-37a1.52,1.52,0,1,1,0-3h37a1.52,1.52,0,0,1,0,3Z" style="fill:#00e0b5"/><path d="M33.2,52.77a5.37,5.37,0,0,1-4.1-2c-.73-.74-1.09-1.07-1.93-1.07s-1.2.33-1.93,1.07a5.22,5.22,0,0,1-8.19,0c-.73-.74-1.09-1.07-1.93-1.07a1.52,1.52,0,0,1,0-3,5.37,5.37,0,0,1,4.1,2c.73.74,1.09,1.07,1.92,1.07s1.2-.33,1.94-1.07a5.21,5.21,0,0,1,8.18,0c.74.74,1.1,1.07,1.94,1.07s1.2-.33,1.94-1.07a5.33,5.33,0,0,1,4.09-2,1.52,1.52,0,0,1,0,3c-.84,0-1.2.33-1.93,1.07A5.37,5.37,0,0,1,33.2,52.77Z" style="fill:#00e0b5"/><path d="M33.2,60.58a5.4,5.4,0,0,1-4.1-2c-.73-.75-1.09-1.07-1.93-1.07s-1.2.32-1.93,1.07a5.24,5.24,0,0,1-8.19,0c-.73-.75-1.09-1.07-1.93-1.07a1.52,1.52,0,0,1,0-3,5.4,5.4,0,0,1,4.1,2c.73.74,1.09,1.07,1.92,1.07s1.2-.33,1.94-1.07a5.23,5.23,0,0,1,8.18,0c.74.74,1.1,1.07,1.94,1.07s1.2-.33,1.94-1.07a5.36,5.36,0,0,1,4.09-2,1.52,1.52,0,1,1,0,3c-.84,0-1.2.32-1.93,1.07A5.4,5.4,0,0,1,33.2,60.58Z" style="fill:#00e0b5"/><path d="M33.2,68.39a5.4,5.4,0,0,1-4.1-2c-.73-.75-1.09-1.08-1.93-1.08s-1.2.33-1.93,1.08a5.24,5.24,0,0,1-8.19,0c-.73-.75-1.09-1.08-1.93-1.08a1.52,1.52,0,0,1,0-3,5.4,5.4,0,0,1,4.1,2c.73.74,1.09,1.07,1.92,1.07s1.2-.33,1.94-1.07a5.23,5.23,0,0,1,8.18,0c.74.74,1.1,1.07,1.94,1.07s1.2-.33,1.94-1.07a5.36,5.36,0,0,1,4.09-2,1.52,1.52,0,1,1,0,3c-.84,0-1.2.33-1.93,1.08A5.4,5.4,0,0,1,33.2,68.39Z" style="fill:#00e0b5"/></svg>