<svg id="Layer_1" data-name="Layer 1" xmlns="http://www.w3.org/2000/svg" viewBox="0 0 100 53.83"><path d="M30.19,53.83H17.79a5.26,5.26,0,0,1-5.25-5.25V35.75a1.22,1.22,0,0,1,2.44,0V48.58a2.81,2.81,0,0,0,2.81,2.81h12.4A2.82,2.82,0,0,0,33,48.58V5.25a2.82,2.82,0,0,0-2.82-2.81H17.79A2.81,2.81,0,0,0,15,5.25V16.86a1.22,1.22,0,1,1-2.44,0V5.25A5.26,5.26,0,0,1,17.79,0h12.4a5.26,5.26,0,0,1,5.26,5.25V48.58A5.26,5.26,0,0,1,30.19,53.83Z" style="fill:#31e528"/><path d="M13.76,47.32H5.25A5.26,5.26,0,0,1,0,42.06V11.77A5.26,5.26,0,0,1,5.25,6.51h8.51a1.22,1.22,0,0,1,0,2.44H5.25a2.81,2.81,0,0,0-2.81,2.82V42.06a2.81,2.81,0,0,0,2.81,2.82h8.51a1.22,1.22,0,1,1,0,2.44Z" style="fill:#31e528"/><path d="M82.21,53.83H69.8a5.26,5.26,0,0,1-5.25-5.25V5.25A5.26,5.26,0,0,1,69.8,0H82.21a5.26,5.26,0,0,1,5.25,5.25V16.86a1.22,1.22,0,0,1-2.44,0V5.25a2.81,2.81,0,0,0-2.81-2.81H69.8A2.81,2.81,0,0,0,67,5.25V48.58a2.81,2.81,0,0,0,2.81,2.81H82.21A2.81,2.81,0,0,0,85,48.58V35.75a1.22,1.22,0,0,1,2.44,0V48.58A5.26,5.26,0,0,1,82.21,53.83Z" style="fill:#31e528"/><path d="M94.74,47.32h-8.5a1.22,1.22,0,0,1,0-2.44h8.5a2.82,2.82,0,0,0,2.82-2.82V11.77A2.82,2.82,0,0,0,94.74,9h-8.5a1.22,1.22,0,1,1,0-2.44h8.5A5.27,5.27,0,0,1,100,11.77V42.06A5.27,5.27,0,0,1,94.74,47.32Z" style="fill:#31e528"/><path d="M65.77,21.29H34.23a1.22,1.22,0,0,1,0-2.44H65.77a1.22,1.22,0,0,1,0,2.44Z" style="fill:#31e528"/><path d="M65.77,32.59H34.23a1.22,1.22,0,1,1,0-2.44H65.77a1.22,1.22,0,0,1,0,2.44Z" style="fill:#31e528"/></svg>