<svg id="Layer_1" data-name="Layer 1" xmlns="http://www.w3.org/2000/svg" viewBox="0 0 66.7 100"><path d="M33.35,100a33.36,33.36,0,0,1-26-54.26,30.25,30.25,0,1,1,52,0,33.36,33.36,0,0,1-26,54.26ZM10.49,47a30.12,30.12,0,1,0,45.74,0,.94.94,0,0,1-.1-.1A1.62,1.62,0,0,1,56,45a27,27,0,1,0-45.28,0A1.61,1.61,0,0,1,10.49,47Z" style="fill:#31e528"/><path d="M16.64,41.29a1.58,1.58,0,0,1-1.21-.56h0c-2.93-3.43-3.5-7-3.5-12,0-13.28,7.81-20.9,21.44-20.9,12.92,0,21.26,8,21.26,20.27,0,4.16-.41,8.89-3.44,12.54a1.63,1.63,0,0,1-2.09.34,30.16,30.16,0,0,0-31.47,0A1.6,1.6,0,0,1,16.64,41.29ZM33.35,11c-11.74,0-18.21,6.28-18.21,17.67,0,3.87.32,6.45,1.91,8.83a33.44,33.44,0,0,1,32.43-.09c1.33-2.17,1.9-5,1.9-9.37C51.38,17.57,44.47,11,33.35,11Z" style="fill:#31e528"/><path d="M24.4,80.93H22.83v-26H20.46V53.35H24.4Z"/><path d="M24.4,82.54H22.83a1.61,1.61,0,0,1-1.62-1.61V56.54h-.75a1.62,1.62,0,0,1-1.61-1.62V53.35a1.61,1.61,0,0,1,1.61-1.62H24.4A1.61,1.61,0,0,1,26,53.35V80.93A1.61,1.61,0,0,1,24.4,82.54Z" style="fill:#31e528"/><path d="M30.79,61.42a8.5,8.5,0,0,1,.63-3.29,7.93,7.93,0,0,1,4.31-4.35,8.12,8.12,0,0,1,6.27,0,8.3,8.3,0,0,1,2.58,1.73,8.14,8.14,0,0,1,1.73,2.62,8.5,8.5,0,0,1,.63,3.29V72.85a8.5,8.5,0,0,1-.63,3.29,8.14,8.14,0,0,1-1.73,2.62A8.3,8.3,0,0,1,42,80.49a8.12,8.12,0,0,1-6.27,0,8,8,0,0,1-2.58-1.73,8.14,8.14,0,0,1-1.73-2.62,8.5,8.5,0,0,1-.63-3.29Zm14.57,0a7,7,0,0,0-.51-2.69,6.32,6.32,0,0,0-1.4-2.13,6.51,6.51,0,0,0-9.17,0,6.27,6.27,0,0,0-1.4,2.13,6.79,6.79,0,0,0-.52,2.69V72.85a6.88,6.88,0,0,0,.52,2.7,6.37,6.37,0,0,0,1.4,2.13,6.3,6.3,0,0,0,2.06,1.37,6.63,6.63,0,0,0,5,0,6.24,6.24,0,0,0,2.06-1.37,6.63,6.63,0,0,0,1.4-2.13,7.05,7.05,0,0,0,.51-2.7Z"/><path d="M38.86,82.74A9.61,9.61,0,0,1,35.1,82a9.56,9.56,0,0,1-5.18-5.22,10.28,10.28,0,0,1-.75-3.91V61.42a10.31,10.31,0,0,1,.75-3.91,9.65,9.65,0,0,1,5.18-5.22,9.64,9.64,0,0,1,12.7,5.22,10,10,0,0,1,.76,3.91V72.85a10,10,0,0,1-.76,3.91,9.67,9.67,0,0,1-2.08,3.14,9.63,9.63,0,0,1-6.86,2.84Zm0-26.4a5,5,0,0,0-1.9.37,4.68,4.68,0,0,0-1.54,1,4.74,4.74,0,0,0-1.05,1.6A5.43,5.43,0,0,0,34,61.42V72.85a5.35,5.35,0,0,0,.39,2.08A4.73,4.73,0,0,0,37,77.56a5,5,0,0,0,3.8,0,4.67,4.67,0,0,0,1.55-1,4.84,4.84,0,0,0,1-1.6,5.43,5.43,0,0,0,.39-2.08V61.42a5.34,5.34,0,0,0-.39-2.07,4.78,4.78,0,0,0-1-1.61,4.72,4.72,0,0,0-1.55-1A5,5,0,0,0,38.86,56.34Z" style="fill:#31e528"/></svg>