<svg id="Layer_1" data-name="Layer 1" xmlns="http://www.w3.org/2000/svg" viewBox="0 0 100 65.71"><path d="M63.43,65.71c-7.61,0-14.1-1.68-18.49-4.9-7.73-5.67-9.29-5.1-12.4-4a22.77,22.77,0,0,1-8.8,1.62c-1.77,0-3.61.06-5.38.12-7.15.23-13.9.45-16.88-3.14C0,53.68-.36,51.24.36,48c.9-4,.73-9.91.57-15.6C.68,23.76.47,16.29,3.63,13.77a4.28,4.28,0,0,1,3.92-.66h0c4.72,1.24,6.33,2.22,7.62,3a11.6,11.6,0,0,0,5.12,1.77c5.29.92,9,.3,10.67-1.81,1.53-1.91,1.48-5.24-.14-9.13C30.24,5.58,28.5,1.41,31,.22c1.56-.76,3.77.59,4.32,1.58C50.61,29.27,90.37,37.39,90.77,37.47l.27.09c.32.15,7.89,3.72,8.86,9.43.46,2.75-.65,5.45-3.3,8-4.69,4.54-14.23,8.46-24.32,10A59.86,59.86,0,0,1,63.43,65.71ZM35.7,53.65c2.42,0,5.3,1.24,10.68,5.19s14.8,5.4,25.53,3.76c9.62-1.47,18.65-5.13,23-9.34,2-2,2.91-3.95,2.59-5.86-.69-4.11-6.44-7.12-7.35-7.57a113.14,113.14,0,0,1-22.36-7.58C56.57,27.12,41.47,17.89,33.15,3a2.53,2.53,0,0,0-1-.55c0,.34,0,1.31.94,3.58,2,4.8,1.93,8.92-.21,11.58-2.3,2.89-6.67,3.79-13,2.69a13.94,13.94,0,0,1-6-2.09c-1.22-.74-2.6-1.58-7-2.73h0a1.84,1.84,0,0,0-1.78.21c-2.21,1.76-2,9.67-1.79,16.66.17,5.83.34,11.86-.62,16.19-.55,2.45-.34,4.21.62,5.38,2.21,2.66,8.39,2.46,14.92,2.25,1.79-.06,3.65-.12,5.46-.12a20.74,20.74,0,0,0,8-1.47A11.34,11.34,0,0,1,35.7,53.65Z" style="fill:#ffd500"/><path d="M71.72,53.49a52.53,52.53,0,0,1-14.33-2.05l-3.74-1.06c-21.81-6.18-31.77-9-51.48-2.1a1.21,1.21,0,0,1-1.55-.74A1.22,1.22,0,0,1,1.36,46c20.45-7.16,31.31-4.08,53,2.06l3.74,1.06c23.3,6.56,38.37-5.81,38.52-5.93A1.22,1.22,0,0,1,98.14,45C97.62,45.46,87.85,53.49,71.72,53.49Z" style="fill:#ffd500"/><path d="M2.22,36.33A1.22,1.22,0,0,1,1,35.12,9.59,9.59,0,0,1,4.61,27.2a9.52,9.52,0,0,1,8.31-1.44c3.7,1.06,10.8.93,14-2.1,4.53-4.31,9.6-7,13.56-7.15a21.15,21.15,0,0,1,9.67,2.32A1.22,1.22,0,0,1,49,21a19.47,19.47,0,0,0-8.43-2c-4,.17-8.81,3.46-12,6.48-4,3.86-12.14,3.88-16.34,2.67a7,7,0,0,0-6.16,1,7.11,7.11,0,0,0-2.64,6,1.21,1.21,0,0,1-1.22,1.22Z" style="fill:#ffd500"/><path d="M40,29.17a1.2,1.2,0,0,1-.89-.39,1.22,1.22,0,0,1,.05-1.72l8.95-8.35a1.22,1.22,0,0,1,1.66,1.79l-8.94,8.34A1.23,1.23,0,0,1,40,29.17Z" style="fill:#ffd500"/><path d="M47.36,32.92a1.22,1.22,0,0,1-.83-2.11l8-7.6A1.22,1.22,0,0,1,56.26,25l-8.06,7.6A1.22,1.22,0,0,1,47.36,32.92Z" style="fill:#ffd500"/><path d="M54,37.09a1.21,1.21,0,0,1-.86-.36,1.23,1.23,0,0,1,0-1.72L61,27.09a1.22,1.22,0,0,1,1.72,1.72l-7.92,7.93A1.25,1.25,0,0,1,54,37.09Z" style="fill:#ffd500"/><path d="M61.9,41.27a1.19,1.19,0,0,1-.82-.33A1.22,1.22,0,0,1,61,39.22l7.65-8.35a1.22,1.22,0,0,1,1.8,1.65L62.8,40.87A1.23,1.23,0,0,1,61.9,41.27Z" style="fill:#ffd500"/></svg>