<svg id="Layer_1" data-name="Layer 1" xmlns="http://www.w3.org/2000/svg" xmlns:xlink="http://www.w3.org/1999/xlink" viewBox="0 0 4660.27 3223.76"><defs><clipPath id="clip-path" transform="translate(-397.76 77.04)"><rect width="5476.05" height="3721.57" style="fill:none"/></clipPath><linearGradient id="linear-gradient" x1="970.75" y1="2338.01" x2="3290.27" y2="3769.34" gradientTransform="matrix(1, 0.05, 0.05, -1, 289.84, 4093.45)" gradientUnits="userSpaceOnUse"><stop offset="0" stop-color="#fff" stop-opacity="0.4"/><stop offset="0.37" stop-color="#fff" stop-opacity="0.3"/><stop offset="0.59" stop-color="#fff" stop-opacity="0.2"/><stop offset="0.76" stop-color="#fff" stop-opacity="0.03"/><stop offset="1" stop-color="#fff" stop-opacity="0"/></linearGradient><linearGradient id="linear-gradient-2" x1="4847.11" y1="454.6" x2="3034.66" y2="2655.41" gradientUnits="userSpaceOnUse"><stop offset="0.01" stop-color="#fff" stop-opacity="0.4"/><stop offset="0.26" stop-color="#fff" stop-opacity="0.3"/><stop offset="0.45" stop-color="#fff" stop-opacity="0.2"/><stop offset="0.69" stop-color="#fff" stop-opacity="0.03"/><stop offset="1" stop-color="#fff" stop-opacity="0"/></linearGradient></defs><g style="clip-path:url(#clip-path)"><path d="M4560.54,1849.79c-383-513.23-1477.27-32.23-3125.52-654.11C961.37,1017,357.49,715.3,399.87,569.39c15-51.63,106.72-69.26,394.55-118.26,534.22-90.86,804.9-122.48,1143.42-174.46,391-60.05,774.79-160.2,1408.57-353.71C3346.41-77,4697.3,2033.05,4560.54,1849.79Z" transform="translate(-397.76 77.04)" style="fill-rule:evenodd;fill:url(#linear-gradient)"/><path d="M3165.36,1196.23c329.86-115.15,768.55-306.86,1212.41-636.89,337.52-251,478.75-433.74,584.71-390.1,200.53,82.58,64.65,889.59-215,1512.62-329.4,734-855.85,1207.19-1195.21,1464.85" transform="translate(-397.76 77.04)" style="fill-rule:evenodd;fill:url(#linear-gradient-2)"/></g></svg>