<svg id="Layer_1" data-name="Layer 1" xmlns="http://www.w3.org/2000/svg" xmlns:xlink="http://www.w3.org/1999/xlink" viewBox="0 0 4870 1075.59"><defs><clipPath id="clip-path" transform="translate(104.86 -344.22)"><rect x="-4.86" width="4665.14" height="3223.76" style="fill:none"/></clipPath><linearGradient id="linear-gradient" x1="2308.72" y1="109.81" x2="2332.26" y2="1274.63" gradientUnits="userSpaceOnUse"><stop offset="0" stop-color="#fff" stop-opacity="0.4"/><stop offset="1" stop-color="#fff" stop-opacity="0"/></linearGradient></defs><g style="clip-path:url(#clip-path)"><path d="M-104.86,919.15c676.16-33.51,1079.76-221.26,1329-400.52,71.67-51.54,290.73-217.56,355-163.85,71.58,59.8-129.08,324.8-45.51,418.73,70.07,78.75,277.19-33.28,791.94-191.16,487.13-149.4,596-139.34,682.71-91,189.63,105.59,233.38,371.34,300.4,355,59.56-14.51,14.54-221.85,100.13-264,115.82-57,284.09,280.44,518.86,264,228.61-16,337.94-354.86,436.93-318.6,76,27.84,16.75,229.48,100.13,473.35,67,196.06,196.37,332,300.4,418.73" transform="translate(104.86 -344.22)" style="fill:url(#linear-gradient)"/></g></svg>