<svg id="Layer_1" data-name="Layer 1" xmlns="http://www.w3.org/2000/svg" viewBox="0 0 1020 1020"><path d="M1022,512q0,21.18-1.72,41.93c-4-5.16-9.78-8.42-17.35-9.78q-17.28-3.09-41.14,2.47a367.79,367.79,0,0,0-51.58,16.6q-27.71,11-53.46,23.4t-47.06,22.94q-21.32,10.58-32.18,14.54,2.09-11.26,7.06-41.1t11.17-68.08q6.18-38.22,13.09-80.33t12.06-78.44q5.16-36.33,8.34-62.8t2.13-32.41a55.48,55.48,0,0,0-7.58-19.77A41.66,41.66,0,0,0,809.69,227a43.5,43.5,0,0,0-18.42-6q-10-1-20.7,4.33Q754.18,233,739,262.59t-28.78,70.49Q696.6,374,685.3,422t-19.1,92.63q-7.82,44.67-11.65,80.76t-2.68,54.32q1.85,22.14,11.61,38.83a76.28,76.28,0,0,0,24.75,26.29,74.27,74.27,0,0,0,34.34,11.32Q742,727.82,763,719.34a116.09,116.09,0,0,0,13.9-6.2c4.57-2.39,9.16-4.69,13.78-6.86a581.25,581.25,0,0,1,53.51-23.07l60.69-23q30.34-11.49,58.08-24.21t46.24-27.58q2.37-1.9,4.45-3.86C970.06,842.05,762,1022,512,1022,274.6,1022,75.1,859.8,18.24,640.18q18.32,18.41,57,23.94,9.81,1.68,27.3.29t37.15-3.81q19.67-2.46,37.63-4.94t29.19-4.46q31.83-4.92,64.76-11.43t66.36-12a659.11,659.11,0,0,1,66.47-7.63,416.07,416.07,0,0,1,65.6,1,186.44,186.44,0,0,1,26.61,4.16q11.4,2.76,14.8,6.6t-2.78,9.35q-6.19,5.52-25.54,11.65a485,485,0,0,1-49.54,12.82L383.9,675.79q-17.19,3-28.43-2.82t-21.79-11.5a64.6,64.6,0,0,0-23.39-7.11q-12.89-1.47-32.63,10.17-22.8,13.59-29.64,32.84a56,56,0,0,0,0,38.49q6.78,19.25,26.09,35.94t49.05,25.09q29.78,8.37,69.13,5.53t86.4-22.06A258.68,258.68,0,0,0,540.06,744q29.61-23.26,50-50.72a114.41,114.41,0,0,0,15.42-28.61q11.09-29.86,3.66-50.72t-26.65-35.16q-19.23-14.32-46.5-22.13a384.4,384.4,0,0,0-56.2-11.55A462.35,462.35,0,0,0,379.57,543L325,548.53q-27.12,2.73-54.45,6.19-46.06,5.4-75.06,7.09t-34.86-4.41q-5.85-6.12,13.3-23.13t69.38-49q31.26-19.83,65.23-37.74a513.92,513.92,0,0,1,65.7-29.31q31.74-11.37,58.68-13.06t43.65,11.72q13.32,9.92,26.68,10.29t24.47-13.86q14.93-19.65,19.09-40.5t-1.41-38.94q-5.59-18.08-21.53-31.29T482.62,285q-35.81-5.94-75.68-.29a444.83,444.83,0,0,0-81,19.75,617.77,617.77,0,0,0-81.76,34.86,864.91,864.91,0,0,0-77.92,45.07,763.86,763.86,0,0,0-68.8,50.29,664.05,664.05,0,0,0-54.59,49.83A183.18,183.18,0,0,0,8.05,536.28c-1.81,4-3.4,8-4.78,11.94Q2,530.28,2,512C2,230.34,230.34,2,512,2S1022,230.34,1022,512Z" transform="translate(-2 -2)" style="fill:#fff"/></svg>