<svg id="Layer_1" data-name="Layer 1" xmlns="http://www.w3.org/2000/svg" viewBox="0 0 98 62.21"><path d="M70.59,38.48H69.32l.12-.39h0c0-.06,0-.11,0-.16.08-.21.14-.42.21-.63.18-.54.36-1.07.55-1.61.32-.93.64-1.88,1-2.82,1.28-3.79,2.52-7.58,3.75-11.35.54-1.65,1.08-3.31,1.6-5Q79,8.91,81.36,1.29H36.88a88,88,0,0,0-10.37.62,10.62,10.62,0,0,0-3.93,1.32,11.62,11.62,0,0,0-2.13,1.68,19.17,19.17,0,0,0-3.61,7.18l-6,18.48L6.23,44.87,4.16,51.24H40.43c1.71,0,3.16-.05,4.39-.15H48l39.29.06a19.07,19.07,0,0,0,4.32-.56,5.08,5.08,0,0,0,2.83-1.54,11.65,11.65,0,0,0,2.78-5.19c.3-.9.6-1.8.89-2.69.19-.53.37-1.08.55-1.62L99,38.48ZM61.1,11.74c-.08.23-.14.44-.22.67L59.1,17.77H32.88l-1.5,4.37,26.29.06c-2,6.19-4.19,12.68-6.43,19.48a10.58,10.58,0,0,1-2.44,4.5,4.31,4.31,0,0,1-2.5,1.37,25.69,25.69,0,0,1-6.49.57H8.09L11.9,36.38l26.35.12L39.69,32l-26.41.12L19.21,13.9a15.45,15.45,0,0,1,3.18-6.3A11.41,11.41,0,0,1,24.2,6.1,12.38,12.38,0,0,1,27.64,5a60.3,60.3,0,0,1,9.11-.56H63.52C62.67,7,61.84,9.48,61.1,11.74Z" transform="translate(-1 -1.29)" style="fill:#fff"/><path d="M6.13,57.75l.31-1h5.78l1-2.94H7.3a15.84,15.84,0,0,0-2,.12,2.4,2.4,0,0,0-.75.25,2,2,0,0,0-.41.32,3.58,3.58,0,0,0-.69,1.39L2.14,60l5.81,0-.32,1-5.79,0L1,63.47H8a6,6,0,0,0,1.43-.12,1,1,0,0,0,.54-.3,2.15,2.15,0,0,0,.53-1c.51-1.49,1-2.92,1.42-4.28Z" transform="translate(-1 -1.29)" style="fill:#fff"/><path d="M22.84,54.8a1,1,0,0,0-.16-.61c-.06-.12-.28-.23-.67-.32a5.23,5.23,0,0,0-1-.07H14.21l-1,3H19l-.32,1H12.87L11,63.47h3.22l1.18-3.56,3.91,0c.22,0,.4,0,.55,0a2.48,2.48,0,0,0,.74-.05c.53-.11.93-.64,1.2-1.58l.82-2.52A4.59,4.59,0,0,0,22.84,54.8Z" transform="translate(-1 -1.29)" style="fill:#fff"/><path d="M32.59,56a3.93,3.93,0,0,0,.17-.85c0-.19,0-.34,0-.44a1.23,1.23,0,0,0,0-.2,1,1,0,0,0-.6-.51,3.79,3.79,0,0,0-.94-.14L28,53.8H24.3c-1,3-1.59,4.9-1.84,5.74-.2.65-.33,1.1-.38,1.33a2.64,2.64,0,0,0-.07.53,1.88,1.88,0,0,0,1.07,1.76,3.51,3.51,0,0,0,1.15.2l6,.08,1.91-5.87C32.32,56.91,32.48,56.38,32.59,56ZM27.73,60.9H25.25c.53-1.6,1-3,1.37-4.14h2.52Z" transform="translate(-1 -1.29)" style="fill:#fff"/><path d="M42.57,54a3.46,3.46,0,0,0-1.21-.16l-7.1,0-.9,2.89H39l-.32,1H33l-1.86,5.71h3.21l.9-2.66h.94l2,2.66,4-.06-2-2.46,1-.78,1.57-4.79a3.86,3.86,0,0,0,.16-.82C42.88,54.23,42.78,54.06,42.57,54Z" transform="translate(-1 -1.29)" style="fill:#fff"/><path d="M44.72,54a1.08,1.08,0,0,0-.74.66,14.59,14.59,0,0,0-.74,2.17H46l-2.16,6.68h3.3l2.16-6.69h1.39a1.22,1.22,0,0,0,1.14-.59,15,15,0,0,0,.86-2.38l-7.11,0A3.22,3.22,0,0,0,44.72,54Z" transform="translate(-1 -1.29)" style="fill:#fff"/><path d="M62.32,60.9H59.86c.8-2.36,1.56-4.69,2.27-7h-3.2c-.24.73-.46,1.39-.65,2s-.38,1.15-.53,1.64l-.42,1.3c-.12.37-.22.69-.29,1l-.18.6a1.1,1.1,0,0,0-.07.26,2.31,2.31,0,0,0-.14.79,1.61,1.61,0,0,0,.19.78,1.68,1.68,0,0,0,.76.84,3,3,0,0,0,1.51.29l5.63.08L65.49,61Z" transform="translate(-1 -1.29)" style="fill:#fff"/><path d="M68.61,53.8l-3.12,9.59h3.28q1.33-3.85,3.08-9.57Z" transform="translate(-1 -1.29)" style="fill:#fff"/><path d="M80.42,53.77l-1.75,5.39L76,53.84l-2.56,0c-.48,0-.74.12-.8.44q-1.28,4.18-2.93,9.11l3.23,0L74.7,58l2.57,5.39H80.5l3.17-9.6Z" transform="translate(-1 -1.29)" style="fill:#fff"/><polygon points="89.6 52.51 85.56 56.81 86.94 52.54 83.71 52.5 80.61 62.05 83.87 62.07 86.45 59.2 87.61 62.05 90.97 62.08 88.71 56.78 92.73 52.55 89.6 52.51" style="fill:#fff"/></svg>