<svg id="Layer_1" data-name="Layer 1" xmlns="http://www.w3.org/2000/svg" viewBox="0 0 1000 209.39"><path d="M582.2,92.07A21.93,21.93,0,0,0,575,86a24,24,0,0,0-9.16-2.75,24.21,24.21,0,0,0-9.47,1,17.37,17.37,0,0,0-7.9,5,17.72,17.72,0,0,0-2.83,4.47,14.12,14.12,0,0,1-3,4.32,14.84,14.84,0,0,1-4.1,3.14,16.54,16.54,0,0,0-4.25,3.13A46.92,46.92,0,0,0,521.23,135a33.69,33.69,0,0,0,2,13.42,28,28,0,0,0,7.83,11q6.55,5.81,13.27,6.33a25,25,0,0,0,13-2.53,39.81,39.81,0,0,0,11.85-9,77,77,0,0,0,9.69-13,70.4,70.4,0,0,0,6.56-14.38,43.84,43.84,0,0,0,2.38-13.34,57,57,0,0,0-1.12-11.26A25.28,25.28,0,0,0,582.2,92.07Zm-14.39,25.71a41.43,41.43,0,0,1-3,9.62,44.7,44.7,0,0,1-5,8.72,22.36,22.36,0,0,1-5.82,5.67q-3,1.86-5.21.37a10.91,10.91,0,0,1-2.39-6,30.47,30.47,0,0,1,.23-8.2,43.25,43.25,0,0,1,2.31-8.79,42.54,42.54,0,0,1,3.8-7.83,19.08,19.08,0,0,1,4.69-5.29,5.62,5.62,0,0,1,5.07-1.12,6.67,6.67,0,0,1,5,4.62A17.41,17.41,0,0,1,567.81,117.78ZM440.07,145.36q.81,4.84-2.76,11a25.17,25.17,0,0,1-4.47,5.66,59.4,59.4,0,0,1-12.9,9.17,57.64,57.64,0,0,1-14.83,5.59,63.36,63.36,0,0,1-19.75,1.49,44.91,44.91,0,0,1-14.91-3.87,28,28,0,0,1-9.76-7.38,19,19,0,0,1-4.32-8.87,12.44,12.44,0,0,1,1.49-8.42q2.24-4,7.75-6,4.77-1.78,7.53-1a14.56,14.56,0,0,1,4.84,2.46q2.08,1.63,4.32,3.35a9.78,9.78,0,0,0,6.12,1.72l11.18-.3a107.87,107.87,0,0,0,11.32-.9q4.49-.58,6-1.56c1.05-.65,1.37-1.29,1-1.94a6.8,6.8,0,0,0-3-2,41.61,41.61,0,0,0-5.66-1.94A93.11,93.11,0,0,0,395,138.8a147.79,147.79,0,0,0-14.83-.89q-7.53-.07-15,.07t-14.61,0c-1.69,0-3.87,0-6.56-.15s-5.49-.22-8.42-.37-5.69-.34-8.27-.59a25.81,25.81,0,0,1-6-1.12q-8.65-2.83-11.85-7.9a16.43,16.43,0,0,1-2.54-11,26.16,26.16,0,0,1,4.62-11.7,40.76,40.76,0,0,1,9.62-10,146.47,146.47,0,0,1,13.86-8.79,168.92,168.92,0,0,1,17-8.35,192.07,192.07,0,0,1,18.79-6.86,136.08,136.08,0,0,1,19.23-4.47,98.52,98.52,0,0,1,18.48-1.19,55,55,0,0,1,16.55,3A19.32,19.32,0,0,1,433.43,74a14.5,14.5,0,0,1,3.51,7.68,17.42,17.42,0,0,1-1.2,8.57A21.86,21.86,0,0,1,430,98.33c-2,1.79-3.95,2.49-5.88,2.09a10.37,10.37,0,0,1-5.44-3.28q-3.14-3.58-9.1-4.25a47.41,47.41,0,0,0-13.34.6,114.25,114.25,0,0,0-15.5,3.87Q372.61,100,365,103.1q-12.22,5.07-17.07,8.05c-3.23,2-4.49,3.51-3.8,4.55s3.18,1.81,7.46,2.31,9.83.95,16.69,1.34q6.12.3,12.15.75l12.15.89q4,.3,9.84,1.34a100,100,0,0,1,12,3,86.47,86.47,0,0,1,11.85,4.7,31.94,31.94,0,0,1,9.32,6.63A16.69,16.69,0,0,1,440.07,145.36Zm61.11-55.15q-8-2.76-20.79.67a21.5,21.5,0,0,0,0-5.07A10.26,10.26,0,0,0,479,81.49a6.78,6.78,0,0,0-3.2-2.68,9.35,9.35,0,0,0-5.37-.3,11.17,11.17,0,0,0-3.88,1.64A19.72,19.72,0,0,0,463.17,83a27.08,27.08,0,0,0-2.83,3.5,41,41,0,0,0-2.16,3.5,78.78,78.78,0,0,0-9.47,28.7,95,95,0,0,0,1.12,30.19c.4,2,.92,4.27,1.56,6.85a56.58,56.58,0,0,0,2.54,7.68,42.52,42.52,0,0,0,3.65,7A12.15,12.15,0,0,0,462.5,175a8.65,8.65,0,0,0,4.92,1,6.62,6.62,0,0,0,4.47-2.16,6.09,6.09,0,0,0,1.94-4.55,11.06,11.06,0,0,0-1.64-4.84A22.39,22.39,0,0,1,469,155.5c-.34-2.93-.62-6.09-.82-9.47Q482,146,491.94,141a45.4,45.4,0,0,0,15.58-12.37,33.48,33.48,0,0,0,6.93-15.35,22,22,0,0,0-2-14.16Q509.16,93,501.18,90.21ZM494.47,110q-.36,3.29-5,8.2a37.89,37.89,0,0,1-8.05,6.48,57.9,57.9,0,0,1-11.18,5.29,16,16,0,0,1,1.34-10.21,30.52,30.52,0,0,1,6.56-9.16,19.33,19.33,0,0,1,8.05-5q4-1.11,6.34,0C494.08,106.31,494.72,107.77,494.47,110ZM660.9,95.8a6.65,6.65,0,0,1,.9,5.22q-.45,2.24-3.43,3.57a75.73,75.73,0,0,1-7.23,2.76q-4.25,1.43-9.24,3.43a38.79,38.79,0,0,0-18.19,15.35,42.86,42.86,0,0,0-5.59,15.13q-.45,2.53-.67,5.52a36.38,36.38,0,0,1-.89,5.74,11.44,11.44,0,0,1-2.39,4.77,7.94,7.94,0,0,1-5.29,2.46q-4.77.75-7.75-1.94a15.78,15.78,0,0,1-4.4-7.53,41.86,41.86,0,0,1-1.49-11.18,79.67,79.67,0,0,1,1-13.12,87.85,87.85,0,0,1,3.13-13.34,65.12,65.12,0,0,1,4.92-11.7,33.29,33.29,0,0,1,6.26-8.35,10.44,10.44,0,0,1,7.16-3.2q4.47,0,6.55,2.83a11.27,11.27,0,0,1,2.09,6.86q2.83-1,6.93-2.68c2.73-1.1,5.54-2.09,8.43-3a49.93,49.93,0,0,1,8.42-1.86,11.74,11.74,0,0,1,6.78.82A9.69,9.69,0,0,1,660.9,95.8ZM221.39,115.66q0,4.35-.35,8.61a5.55,5.55,0,0,0-3.57-2,21.09,21.09,0,0,0-8.44.51,75.5,75.5,0,0,0-10.59,3.4q-5.69,2.27-11,4.81t-9.67,4.71a71.94,71.94,0,0,1-6.6,3c.28-1.54.77-4.35,1.45-8.44s1.44-8.74,2.29-14,1.74-10.73,2.69-16.49,1.76-11.13,2.47-16.1,1.28-9.27,1.72-12.9a33.47,33.47,0,0,0,.43-6.65,11.36,11.36,0,0,0-1.55-4.06,8.71,8.71,0,0,0-2.9-2.92A8.92,8.92,0,0,0,174,55.92a7.86,7.86,0,0,0-4.25.89q-3.36,1.57-6.48,7.65a101.65,101.65,0,0,0-5.91,14.47q-2.79,8.4-5.11,18.25t-3.92,19q-1.6,9.16-2.39,16.58a71.16,71.16,0,0,0-.55,11.15,18.53,18.53,0,0,0,2.38,8,15.71,15.71,0,0,0,5.08,5.4,15.24,15.24,0,0,0,7,2.32,17.74,17.74,0,0,0,8.29-1.39,23.88,23.88,0,0,0,2.85-1.27c.94-.49,1.88-1,2.83-1.41q4.76-2.37,11-4.73l12.46-4.72q6.22-2.35,11.92-5a45.06,45.06,0,0,0,9.49-5.66c.32-.26.63-.52.91-.79A104.72,104.72,0,0,1,15.33,142q3.76,3.78,11.7,4.92a23.85,23.85,0,0,0,5.6.06q3.6-.28,7.63-.79t7.73-1c2.45-.34,4.45-.64,6-.92q6.52-1,13.29-2.34t13.63-2.47a136.33,136.33,0,0,1,13.64-1.57,86.47,86.47,0,0,1,13.47.21,39.24,39.24,0,0,1,5.46.86,6.29,6.29,0,0,1,3,1.35q.69.79-.57,1.92a15.84,15.84,0,0,1-5.25,2.39,97.31,97.31,0,0,1-10.17,2.63L90.4,149.28a9,9,0,0,1-5.84-.58c-1.54-.8-3-1.58-4.47-2.36a13.32,13.32,0,0,0-4.8-1.46q-2.66-.3-6.7,2.09-4.68,2.79-6.09,6.74a11.53,11.53,0,0,0,0,7.9A17.68,17.68,0,0,0,67.85,169a25.76,25.76,0,0,0,10.08,5.15,41.32,41.32,0,0,0,14.19,1.14,58.62,58.62,0,0,0,17.73-4.53,52.92,52.92,0,0,0,12.6-7.47,54.57,54.57,0,0,0,10.27-10.41,24,24,0,0,0,3.16-5.87c1.52-4.09,1.76-7.56.75-10.42a15.33,15.33,0,0,0-5.47-7.21,29.31,29.31,0,0,0-9.55-4.55,79,79,0,0,0-11.53-2.37,93.3,93.3,0,0,0-11.4-.79,91.07,91.07,0,0,0-9.17.36l-11.2,1.14q-5.57.56-11.18,1.27-9.45,1.11-15.41,1.45t-7.15-.9q-1.2-1.26,2.73-4.75a126.5,126.5,0,0,1,14.24-10.06q6.42-4.08,13.39-7.75a106,106,0,0,1,13.49-6,44.36,44.36,0,0,1,12-2.68q5.54-.34,9,2.41a9.6,9.6,0,0,0,5.48,2.11c1.83.05,3.5-.9,5-2.85a20.28,20.28,0,0,0,3.91-8.31,16,16,0,0,0-.29-8,13.36,13.36,0,0,0-4.42-6.43,17.9,17.9,0,0,0-8.47-3.61A51.08,51.08,0,0,0,95.13,69,90.68,90.68,0,0,0,78.5,73.05,127.18,127.18,0,0,0,61.71,80.2a178.63,178.63,0,0,0-16,9.25A158.13,158.13,0,0,0,31.59,99.78,136.49,136.49,0,0,0,20.39,110a37.63,37.63,0,0,0-7.15,10.63c-.37.83-.7,1.64-1,2.45q-.26-3.68-.26-7.43a104.7,104.7,0,0,1,209.39,0ZM744,62.18a12.2,12.2,0,0,1,.59,5.07,15.58,15.58,0,0,1-1.86,5.89q-3.88,7.45-7.53,15.06t-6.78,15.35a24.62,24.62,0,0,1,4.25.75,29.55,29.55,0,0,1,4.4,1.49,24.32,24.32,0,0,1,3.8,2,7.2,7.2,0,0,1,2.46,2.46,6.93,6.93,0,0,1,1,4.54,7.64,7.64,0,0,1-1.64,4,7.28,7.28,0,0,1-8.2,2.09,18.36,18.36,0,0,0-10.88-.6,32.57,32.57,0,0,0-2.91,7,50,50,0,0,0-2.08,10.81,42.13,42.13,0,0,0,.59,11.7,18.55,18.55,0,0,0,5.14,9.84,6.54,6.54,0,0,1,2.17,4.92,7.9,7.9,0,0,1-1.72,4.77,10.3,10.3,0,0,1-4.54,3.2,9.12,9.12,0,0,1-6.19.08,24.78,24.78,0,0,1-12.3-7.68,31.77,31.77,0,0,1-6.26-12.22A50.78,50.78,0,0,1,693.92,138a113.07,113.07,0,0,1,1.42-15,23.06,23.06,0,0,0-6.49,1,59.84,59.84,0,0,1-6.93,1.64,13.73,13.73,0,0,1-6.41-.3q-3-.89-4.92-4.92a10.76,10.76,0,0,1-1.26-6.55,9.1,9.1,0,0,1,2.6-4.92,16,16,0,0,1,5.3-3.43,41,41,0,0,1,6.7-2.16,58.87,58.87,0,0,1,6.79-1.2c2.18-.24,4-.42,5.51-.52a9.88,9.88,0,0,0,3.28-.74c.5-.3,1-1.29,1.64-3q1.94-5.05,3.8-10t4-9.77c1.44-3.22,3-6.46,4.77-9.68a99.49,99.49,0,0,1,6-9.77,15.36,15.36,0,0,1,4.62-4.32,11,11,0,0,1,4.78-1.49,12.73,12.73,0,0,1,4.69.59,21.26,21.26,0,0,1,4.1,1.79,15.1,15.1,0,0,1,3.65,2.91A11.61,11.61,0,0,1,744,62.18Zm191.17,82.06a12,12,0,0,1-.74,5,6.38,6.38,0,0,1-3.43,3.5,14,14,0,0,1-5.74,1.27,7.51,7.51,0,0,1-5.29-1.72,12.08,12.08,0,0,1-3.43-4.25,22.74,22.74,0,0,1-1.79-5.21,34.08,34.08,0,0,1-.74-5.67c-.1-1.93-.15-3.8-.15-5.59q-.15-4.62,0-9.31a71.16,71.16,0,0,0-.3-9.17l-1.19.3a83.44,83.44,0,0,0-8,9.69A34.51,34.51,0,0,0,899,134.56q-.75,2.67-1.71,5.81a24.4,24.4,0,0,1-2.61,5.74,11.21,11.21,0,0,1-4.1,3.95,7.8,7.8,0,0,1-6,.3,8.3,8.3,0,0,1-5.14-3.58,10.2,10.2,0,0,1-1.57-6.11,51.46,51.46,0,0,1,1.19-8.28q1-4.83,2.39-10.13L884,111.9q1.26-5.07,2-9a13.45,13.45,0,0,1,1.71-4.32,4.9,4.9,0,0,1,3.81-2.38,7.08,7.08,0,0,1,3.13.07,5,5,0,0,1,2,1.19,10.69,10.69,0,0,1,1.49,1.94,16.28,16.28,0,0,0,1.71,2.31q8.8-6.86,14.84-7.9t9.91,1.86a17.81,17.81,0,0,1,5.89,8.8,72.91,72.91,0,0,1,3,12.89,121.31,121.31,0,0,1,1.27,14.16Q935,138.73,935.18,144.24Zm76.77-42.4a9.57,9.57,0,0,1-1.79,4.24,24.36,24.36,0,0,1-2.53,2.46c-1.29,1.15-2.83,2.46-4.62,3.95s-3.73,3.06-5.82,4.7-4.1,3.18-6,4.62l-5.22,3.88c-1.54,1.14-2.66,2-3.36,2.45a17.76,17.76,0,0,0,5,2.69c1.94.7,3.95,1.34,6,1.94s4.14,1.17,6.18,1.71a47.53,47.53,0,0,1,5.59,1.86,7.5,7.5,0,0,1,3.8,3.36,6.68,6.68,0,0,1,.75,4.32,5.76,5.76,0,0,1-2.31,3.65,7.7,7.7,0,0,1-5.22,1.34,99.31,99.31,0,0,1-18.71-2.38,59.11,59.11,0,0,1-17.36-6.86A69.51,69.51,0,0,0,964,149a51.49,51.49,0,0,0-.89,9.54,6.85,6.85,0,0,0,.29,2.09c.2.6.4,1.25.6,1.94a9.09,9.09,0,0,1-.15,5.44A8.64,8.64,0,0,1,961,172a8.49,8.49,0,0,1-4.47,1.79,9.33,9.33,0,0,1-5.29-1,12.88,12.88,0,0,1-6.33-6.79,34.94,34.94,0,0,1-2.76-11.18,81.4,81.4,0,0,1-.08-13.56q.52-7.23,1.57-14t2.38-12.52c.9-3.83,1.64-6.89,2.24-9.17q.75-2.53,2.16-6.11T953.82,92a50.59,50.59,0,0,1,4.47-7.23,26.37,26.37,0,0,1,5.44-5.59,13.26,13.26,0,0,1,6.11-2.61,10.08,10.08,0,0,1,6.78,1.79,10.23,10.23,0,0,1,3.8,4.32,9.6,9.6,0,0,1,.82,5.67,56.19,56.19,0,0,1-2.83,11q-2.08,5.81-3.73,10.88l.75.44a59.6,59.6,0,0,0,6.71-4.09q3.27-2.31,6.56-4.7c2.18-1.59,4.42-3.06,6.7-4.4a35.23,35.23,0,0,1,7.16-3.2,6.5,6.5,0,0,1,4.62.22,7.31,7.31,0,0,1,3.58,2.91A6.29,6.29,0,0,1,1012,101.84ZM872.87,68.15A8.49,8.49,0,0,1,874.21,73a11.47,11.47,0,0,1-3,8.13,13.43,13.43,0,0,1-6.48,4.09,8.37,8.37,0,0,1-6.41-.74q-2.91-1.64-2.76-6.26a19.52,19.52,0,0,1,1.57-7.75,11.87,11.87,0,0,1,3.5-4.55,8.22,8.22,0,0,1,4.47-1.71,8.31,8.31,0,0,1,4.4.89A8.9,8.9,0,0,1,872.87,68.15Zm-35.62,82.21a8,8,0,0,1-.9,5.51A11.49,11.49,0,0,1,832,159.6a49,49,0,0,1-11.18,4.25q-6.55,1.71-13.64,3.05l-14.16,2.69a125.62,125.62,0,0,0-12.6,3c-1.09.3-2.18.62-3.28,1a27.59,27.59,0,0,1-3.28.82,19.31,19.31,0,0,1-9.09-.08,16.51,16.51,0,0,1-7.08-3.8,17,17,0,0,1-4.4-6.71,20.22,20.22,0,0,1-1-8.94A77.91,77.91,0,0,1,755,143.05q2.24-7.74,5.67-17.22t7.75-19.52q4.32-10.07,8.87-18.49a111.45,111.45,0,0,1,9-14.31q4.47-5.88,8.35-6.93a8.57,8.57,0,0,1,4.69-.15,9.62,9.62,0,0,1,3.8,2,9.33,9.33,0,0,1,2.54,3.65,12.45,12.45,0,0,1,.89,4.62,36.76,36.76,0,0,1-1.71,7q-1.73,5.67-4.25,13.42t-5.67,16.7l-6,17.06q-2.84,8.13-5.07,14.46t-3.13,8.72q2.54-.45,7.6-1.93t11.18-3.21q6.12-1.71,12.6-3.06a83.3,83.3,0,0,1,11.93-1.64,23,23,0,0,1,9.09,1A5.82,5.82,0,0,1,837.25,150.36Zm33.16.52a7.56,7.56,0,0,1,1,5.07,9.26,9.26,0,0,1-2.31,4.54,11.4,11.4,0,0,1-4.62,3.13,12.88,12.88,0,0,1-5.89.75,11.55,11.55,0,0,1-6.11-2.68,18.84,18.84,0,0,1-6-9.17A52.21,52.21,0,0,1,844,139.25a79.16,79.16,0,0,1,3.81-28.84,40.14,40.14,0,0,1,5.29-10.74c2.08-2.88,4.37-4.52,6.85-4.92q4.77-.73,7.23,1.2a9.39,9.39,0,0,1,3.28,5.51,24.78,24.78,0,0,1,.3,8.28q-.53,4.7-1.41,9.39t-2,8.79a50.9,50.9,0,0,0-1.41,6.49,46.11,46.11,0,0,0-.52,6c-.06,2-.18,4-.38,6Q869,148.26,870.41,150.88Z" transform="translate(-12 -10.97)" style="fill:#fff"/></svg>