<svg id="Layer_1" data-name="Layer 1" xmlns="http://www.w3.org/2000/svg" viewBox="0 0 90 47.4"><path d="M65,36.42H63.74l.12-.37h0l0-.15c.07-.2.13-.4.2-.6.17-.51.34-1,.52-1.52l.9-2.68q1.82-5.4,3.56-10.77.77-2.35,1.52-4.71,2.34-7.26,4.57-14.49H33a83.46,83.46,0,0,0-9.84.59A10,10,0,0,0,19.39,3a11.51,11.51,0,0,0-2,1.6,18.19,18.19,0,0,0-3.43,6.81L8.25,28.92,3.87,42.49l-2,6H36.33c1.62,0,3,0,4.16-.14h3l37.29.06a18.7,18.7,0,0,0,4.1-.53,4.83,4.83,0,0,0,2.68-1.47,10.94,10.94,0,0,0,2.64-4.92c.29-.86.57-1.71.85-2.55.18-.51.35-1,.52-1.54l.32-1Zm-9-25.37-.2.63-1.69,5.1H29.16l-1.42,4.14L52.68,21c-1.89,5.87-4,12-6.1,18.49a10.07,10.07,0,0,1-2.31,4.26A4.09,4.09,0,0,1,41.9,45a25,25,0,0,1-6.16.53H5.64L9.25,34.43l25,.12,1.36-4.27-25.06.12,5.63-17.3a14.66,14.66,0,0,1,3-6A10.54,10.54,0,0,1,20.93,5.7a11.43,11.43,0,0,1,3.26-1.07,57,57,0,0,1,8.65-.53h25.4Z" transform="translate(-1.91 -1.13)" style="fill:#fff"/></svg>